# xmcd
#
# Track frame offsets: 
#        150
#        20692
#        35352
#        60687
#        77950
#        93285
#        108697
#        123542
#        138520
#        154827
#        168377
#        186691
#        195654
#        214847
#        223167
#        237204
#        251154
#        265452
#        284535
#        299672
#
# Disc length: 4205 seconds
#
# Revision: 5
# Processed by: cddbd v1.5.2PL0 Copyright (c) Steve Scherf et al.
# Submitted via: ExactAudioCopy v1.3
#
DISCID=49106b14
DTITLE=Various Artist - Het Mooiste Van Lennaert Nijgh
DYEAR=2003
DGENRE=Nederlandstalig
TTITLE0=Boudewijn De Groot - Avond
TTITLE1=Herman Van Veen - Liefde Van Later
TTITLE2=De Dijk - De Wilde Jager
TTITLE3=Marcel De Groot - Vrede
TTITLE4=Liesbeth List - Een Grijze Lente
TTITLE5=Rob De Nijs - Tegen Beter Weten In
TTITLE6=Astrid Nijgh - Ik Doe Wat Ik Doe
TTITLE7=Ramses Shaffy and Liesbeth List - Aan De Andere Kant Van De Heuv
TTITLE7=els
TTITLE8=Stef Bos - Een Tip Van De Sluier
TTITLE9=Boudewijn De Groot - Onderweg
TTITLE10=Rob De Nijs - Kijken Hoe Het Morgen Wordt
TTITLE11=Joost Nuissl - Reizigers Nachtlied
TTITLE12=Ramses Shaffy and Liesbeth List - Pastorale
TTITLE13=Boudewijn De Grooet and Fay Lovsky - Zonder Vrienden Kan Ik Nie
TTITLE13=t
TTITLE14=Cobi Schreijer - Moeder Medea
TTITLE15=Liesbeth List - Endymion
TTITLE16=Astrid Nijgh - Misstap
TTITLE17=Boudewijn De Groot - Een Wonderkind Van 50
TTITLE18=Rob De Nijs - Leonardo
TTITLE19=Boudewijn De Groot - Naast Jou
EXTD=YEAR: 2003
EXTT0=
EXTT1=
EXTT2=
EXTT3=
EXTT4=
EXTT5=
EXTT6=
EXTT7=
EXTT8=
EXTT9=
EXTT10=
EXTT11=
EXTT12=
EXTT13=
EXTT14=
EXTT15=
EXTT16=
EXTT17=
EXTT18=
EXTT19=
PLAYORDER=
